# xmcd
#
# Track frame offsets:
#	150
#	11361
#	33506
#	45928
#	63099
#	82987
#	101512
#	123281
#	135595
#	151631
#	166638
#	184988
#
# Disc length: 2699 seconds
#
# Revision: 0
# Processed by: cddbd v1.4PL0 Copyright (c) Steve Scherf et al.
# Submitted via: EasyCDDAExtractor 4.6.9.1
#
DISCID=7d0a890c
DTITLE=Ken Orrick - Pictures And Stories
DYEAR=2002
DGENRE=Bluegrass
TTITLE0=Harvest Time
TTITLE1=Long Black Veil
TTITLE2=Dreams
TTITLE3=It's Gonna Rain
TTITLE4=A Face In The Crowd
TTITLE5=Blue Virginia Blue
TTITLE6=The Farmer's Daughter
TTITLE7=You're No Longer A Sweetheart Of Mine
TTITLE8=Holding Things Together
TTITLE9=I Don't Want Your Rambling Letters
TTITLE10=Old Flames (Can't Hold A Candle To You)
TTITLE11=Wedding Bells (Are Ringing In The Chapel)
EXTD=
EXTT0=
EXTT1=
EXTT2=
EXTT3=
EXTT4=
EXTT5=
EXTT6=
EXTT7=
EXTT8=
EXTT9=
EXTT10=
EXTT11=
PLAYORDER=
